<svg width="7" height="12" viewBox="0 0 7 12" fill="none" xmlns="http://www.w3.org/2000/svg">
<path d="M0.237 6.46398L5.503 11.73C5.62463 11.8511 5.78932 11.9192 5.961 11.9192C6.13268 11.9192 6.29736 11.8511 6.419 11.73L6.807 11.342C6.9284 11.2205 6.99659 11.0557 6.99659 10.884C6.99659 10.7122 6.9284 10.5475 6.807 10.426L2.385 6.00398L6.812 1.57698C6.93315 1.45534 7.00117 1.29066 7.00117 1.11898C7.00117 0.9473 6.93315 0.782615 6.812 0.660978L6.424 0.272978C6.30236 0.151824 6.13768 0.0838013 5.966 0.0838013C5.79432 0.0838013 5.62964 0.151824 5.508 0.272978L0.237 5.54498C0.115903 5.66725 0.0479736 5.83239 0.0479736 6.00448C0.0479736 6.17657 0.115903 6.3417 0.237 6.46398Z" fill="#16110A"/>
</svg>
