<svg width="20" height="16" viewBox="0 0 20 16" fill="none" xmlns="http://www.w3.org/2000/svg">
<path d="M9.98967 16C5.86067 16 2.14767 13.115 0.0586687 8.281C0.0199606 8.19079 0 8.09366 0 7.9955C0 7.89734 0.0199606 7.80021 0.0586687 7.71C2.14567 2.882 5.85767 0 9.98967 0H9.99967C12.0874 0.0191474 14.108 0.739765 15.7367 2.046C17.5895 3.55189 19.0338 5.49965 19.9367 7.71C19.9753 7.80022 19.9952 7.89735 19.9952 7.9955C19.9952 8.09365 19.9753 8.19078 19.9367 8.281C17.8507 13.115 14.1347 16 9.99967 16H9.98967ZM6.09967 8C6.09551 8.77223 6.3207 9.52831 6.7467 10.1724C7.17271 10.8165 7.78034 11.3197 8.49259 11.6181C9.20485 11.9165 9.98966 11.9967 10.7476 11.8486C11.5055 11.7005 12.2023 11.3307 12.7499 10.7862C13.2974 10.2416 13.6709 9.5467 13.8231 8.78961C13.9753 8.03252 13.8993 7.24728 13.6048 6.53343C13.3102 5.81957 12.8104 5.20923 12.1686 4.77976C11.5268 4.35028 10.7719 4.12101 9.99967 4.121C8.96815 4.11834 7.97781 4.5255 7.24644 5.25293C6.51508 5.98035 6.10258 6.96848 6.09967 8ZM7.56167 8C7.56273 7.84046 7.57914 7.6814 7.61067 7.525H7.65967C8.17669 7.5254 8.67379 7.32557 9.04667 6.96741C9.41955 6.60926 9.63925 6.12062 9.65967 5.604C9.77193 5.58428 9.88569 5.57424 9.99967 5.574C10.477 5.57775 10.9425 5.72263 11.3377 5.99039C11.7328 6.25816 12.0399 6.63684 12.2203 7.07876C12.4007 7.52069 12.4463 8.00611 12.3514 8.4739C12.2565 8.94169 12.0253 9.37095 11.6869 9.70763C11.3486 10.0443 10.9182 10.2734 10.4499 10.366C9.98167 10.4586 9.49649 10.4106 9.05546 10.228C8.61443 10.0454 8.23727 9.73648 7.97145 9.34002C7.70564 8.94356 7.56306 8.47732 7.56167 8Z" fill="#3C3C3C"/>
</svg>
